<?xml version="1.0" encoding="UTF-8"?>
<svg xmlns="http://www.w3.org/2000/svg" xmlns:xlink="http://www.w3.org/1999/xlink" width="16pt" height="16pt" viewBox="0 0 16 16" version="1.1">
<g id="surface1">
<path style=" stroke:none;fill-rule:nonzero;fill:rgb(0%,0%,0%);fill-opacity:1;" d="M 8 9 C 10.484375 9 12.5 6.984375 12.5 4.5 C 12.5 2.015625 10.484375 0 8 0 C 5.515625 0 3.5 2.015625 3.5 4.5 C 3.5 6.984375 5.515625 9 8 9 Z M 12 10 L 10.277344 10 C 9.585938 10.320312 8.8125 10.5 8 10.5 C 7.1875 10.5 6.417969 10.320312 5.722656 10 L 4 10 C 1.789062 10 0 11.789062 0 14 L 0 14.5 C 0 15.328125 0.671875 16 1.5 16 L 14.5 16 C 15.328125 16 16 15.328125 16 14.5 L 16 14 C 16 11.789062 14.210938 10 12 10 Z M 12 10 "/>
</g>
</svg>
